<?xml version="1.0" encoding="utf-8"?>
<!-- Generator: Adobe Illustrator 22.0.1, SVG Export Plug-In . SVG Version: 6.00 Build 0)  -->
<svg version="1.1" id="Layer_1" xmlns="http://www.w3.org/2000/svg" xmlns:xlink="http://www.w3.org/1999/xlink" x="0px" y="0px"
	 viewBox="0 0 78 29" style="enable-background:new 0 0 78 29;" xml:space="preserve">
<style type="text/css">
	.st0{fill:#F0B429;}
</style>
<g>
	<path class="st0" d="M11.6,17.3c0,0.1,0,0.2-0.1,0.2c-0.1,0.1-0.1,0.1-0.2,0.1H9.8c-0.1,0-0.2,0-0.2-0.1c-0.1-0.1-0.1-0.1-0.1-0.2
		v-3c0-0.4-0.1-0.7-0.2-0.8c-0.1-0.2-0.4-0.2-0.6-0.2c-0.3,0-0.5,0.1-0.6,0.2c-0.1,0.2-0.2,0.4-0.2,0.8v3c0,0.1,0,0.2-0.1,0.2
		c-0.1,0.1-0.1,0.1-0.2,0.1H6c-0.1,0-0.2,0-0.2-0.1c-0.1-0.1-0.1-0.1-0.1-0.2v-3c0-0.4-0.1-0.7-0.2-0.8c-0.1-0.2-0.4-0.2-0.6-0.2
		c-0.3,0-0.5,0.1-0.6,0.2C4.1,13.5,4,13.8,4,14.2v3.1c0,0.1,0,0.2-0.1,0.2c-0.1,0.1-0.1,0.1-0.2,0.1H2.2c-0.1,0-0.2,0-0.2-0.1
		c-0.1-0.1-0.1-0.1-0.1-0.2v-5.5c0-0.1,0-0.2,0.1-0.2c0.1-0.1,0.1-0.1,0.2-0.1h1.4c0.1,0,0.2,0,0.2,0.1c0.1,0.1,0.1,0.1,0.1,0.2V12
		c0.2-0.2,0.4-0.4,0.6-0.5c0.2-0.1,0.5-0.2,0.9-0.2c0.4,0,0.8,0.1,1.1,0.2c0.3,0.1,0.6,0.4,0.8,0.7c0.2-0.3,0.5-0.5,0.8-0.7
		c0.3-0.2,0.7-0.2,1.1-0.2c0.3,0,0.7,0.1,0.9,0.2c0.3,0.1,0.5,0.3,0.7,0.5c0.2,0.2,0.4,0.5,0.5,0.8c0.1,0.3,0.2,0.7,0.2,1.2V17.3z"
		/>
	<path class="st0" d="M12.5,15.8c0-0.5,0.2-1,0.6-1.3c0.4-0.3,1-0.6,1.9-0.7l1.4-0.2c0-0.2-0.1-0.3-0.2-0.5
		c-0.1-0.1-0.3-0.2-0.5-0.2c-0.2,0-0.3,0-0.4,0.1c-0.1,0.1-0.2,0.1-0.2,0.1c-0.1,0.1-0.1,0.1-0.2,0.1c-0.1,0-0.1,0-0.2,0h-1.5
		c-0.1,0-0.1,0-0.2-0.1c-0.1,0-0.1-0.1-0.1-0.2c0-0.2,0.1-0.4,0.2-0.6c0.1-0.2,0.3-0.4,0.6-0.5c0.2-0.2,0.5-0.3,0.9-0.4
		c0.3-0.1,0.7-0.2,1.1-0.2c0.5,0,0.9,0.1,1.3,0.2c0.4,0.1,0.6,0.3,0.9,0.5s0.4,0.5,0.5,0.7c0.1,0.3,0.2,0.6,0.2,1v3.6
		c0,0.1,0,0.2-0.1,0.2c-0.1,0.1-0.1,0.1-0.2,0.1h-1.5c-0.1,0-0.2,0-0.2-0.1c-0.1-0.1-0.1-0.1-0.1-0.2v-0.3c-0.2,0.2-0.4,0.4-0.7,0.6
		c-0.3,0.1-0.6,0.2-1.1,0.2c-0.3,0-0.6,0-0.9-0.1c-0.3-0.1-0.5-0.2-0.7-0.4c-0.2-0.2-0.3-0.4-0.4-0.6C12.5,16.3,12.5,16.1,12.5,15.8
		z M15.2,16.1c0.2,0,0.3,0,0.5-0.1c0.1-0.1,0.3-0.1,0.4-0.2c0.1-0.1,0.2-0.2,0.3-0.4c0.1-0.1,0.1-0.3,0.1-0.4l-1.1,0.2
		c-0.2,0-0.4,0.1-0.5,0.2c-0.1,0.1-0.2,0.2-0.2,0.4c0,0.2,0,0.3,0.1,0.3C14.9,16.1,15,16.1,15.2,16.1z"/>
	<path class="st0" d="M24.2,11.4c0.1,0,0.2,0,0.2,0.1c0.1,0.1,0.1,0.1,0.1,0.2v1.2c0,0.1,0,0.2-0.1,0.2c-0.1,0.1-0.1,0.1-0.2,0.1
		h-1.1c-0.7,0-1.1,0.4-1.1,1.1v2.9c0,0.1,0,0.2-0.1,0.2c-0.1,0.1-0.1,0.1-0.2,0.1h-1.5c-0.1,0-0.2,0-0.2-0.1
		c-0.1-0.1-0.1-0.1-0.1-0.2v-5.5c0-0.1,0-0.2,0.1-0.2c0.1-0.1,0.1-0.1,0.2-0.1h1.4c0.1,0,0.2,0,0.2,0.1c0.1,0.1,0.1,0.1,0.1,0.2V12
		c0.2-0.2,0.4-0.3,0.7-0.4c0.3-0.1,0.6-0.2,0.9-0.2H24.2z"/>
	<path class="st0" d="M27.4,13.3l1.6-1.7c0,0,0.1-0.1,0.2-0.1c0.1,0,0.2-0.1,0.3-0.1h1.7c0.1,0,0.1,0,0.2,0.1
		c0.1,0.1,0.1,0.1,0.1,0.2c0,0,0,0.1,0,0.1c0,0,0,0.1-0.1,0.1l-2.1,2.3l2.5,2.8c0,0.1,0.1,0.1,0.1,0.1s0,0.1,0,0.1
		c0,0.1,0,0.1-0.1,0.2c-0.1,0.1-0.1,0.1-0.2,0.1h-1.8c-0.1,0-0.2,0-0.3-0.1c-0.1,0-0.1-0.1-0.2-0.1l-1.9-2.1v2c0,0.1,0,0.2-0.1,0.2
		c-0.1,0.1-0.1,0.1-0.2,0.1h-1.5c-0.1,0-0.2,0-0.2-0.1c-0.1-0.1-0.1-0.1-0.1-0.2V9.5c0-0.1,0-0.2,0.1-0.2c0.1-0.1,0.1-0.1,0.2-0.1
		h1.5c0.1,0,0.2,0,0.2,0.1s0.1,0.1,0.1,0.2V13.3z"/>
	<path class="st0" d="M34,15.2c0,0.2,0,0.3,0.1,0.4c0.1,0.1,0.2,0.2,0.3,0.3c0.1,0.1,0.2,0.1,0.3,0.1c0.1,0,0.2,0,0.4,0
		c0.2,0,0.4,0,0.6-0.1c0.1,0,0.3-0.1,0.3-0.2c0.1-0.1,0.1-0.1,0.2-0.1c0,0,0.1,0,0.2,0h1.5c0.2,0,0.3,0.1,0.3,0.3
		c0,0.1-0.1,0.2-0.2,0.4c-0.1,0.2-0.3,0.4-0.6,0.6c-0.2,0.2-0.6,0.4-1,0.5c-0.4,0.1-0.9,0.2-1.4,0.2c-0.5,0-1-0.1-1.4-0.2
		c-0.4-0.1-0.7-0.4-1-0.6c-0.3-0.3-0.5-0.6-0.6-1c-0.1-0.4-0.2-0.8-0.2-1.3c0-0.5,0.1-0.9,0.2-1.3c0.1-0.4,0.3-0.7,0.6-1
		c0.3-0.3,0.6-0.5,1-0.7c0.4-0.2,0.9-0.2,1.4-0.2c0.6,0,1.1,0.1,1.5,0.3c0.4,0.2,0.7,0.4,1,0.8c0.3,0.3,0.4,0.7,0.6,1
		c0.1,0.4,0.2,0.8,0.2,1.1v0.3c0,0.1,0,0.2-0.1,0.2c-0.1,0.1-0.1,0.1-0.2,0.1H34z M35.1,12.9c-0.3,0-0.6,0.1-0.8,0.3
		c-0.2,0.2-0.3,0.4-0.3,0.7h2.1c0-0.2-0.1-0.5-0.3-0.7C35.7,13,35.4,12.9,35.1,12.9z"/>
	<path class="st0" d="M42.1,15.2c0,0.2,0,0.3,0.1,0.4c0.1,0.1,0.2,0.1,0.4,0.1h0.9c0.1,0,0.2,0,0.2,0.1c0.1,0.1,0.1,0.1,0.1,0.2v1.2
		c0,0.1,0,0.2-0.1,0.2c-0.1,0.1-0.1,0.1-0.2,0.1h-1.1c-0.4,0-0.7-0.1-1-0.2c-0.3-0.1-0.6-0.3-0.8-0.5c-0.2-0.2-0.4-0.4-0.5-0.7
		c-0.1-0.3-0.2-0.6-0.2-1v-2h-0.9c-0.1,0-0.2,0-0.2-0.1c-0.1-0.1-0.1-0.1-0.1-0.2v-1.2c0-0.1,0-0.2,0.1-0.2c0.1-0.1,0.1-0.1,0.2-0.1
		H40V9.5c0-0.1,0-0.2,0.1-0.2s0.1-0.1,0.2-0.1h1.5c0.1,0,0.2,0,0.2,0.1c0.1,0.1,0.1,0.1,0.1,0.2v1.9h1.3c0.1,0,0.2,0,0.2,0.1
		c0.1,0.1,0.1,0.1,0.1,0.2v1.2c0,0.1,0,0.2-0.1,0.2c-0.1,0.1-0.1,0.1-0.2,0.1h-1.3V15.2z"/>
	<path class="st0" d="M48.6,17.7c-0.2,0-0.4,0-0.6-0.1s-0.3-0.1-0.4-0.2c-0.1-0.1-0.2-0.1-0.3-0.2c-0.1-0.1-0.2-0.2-0.2-0.2v2.5
		c0,0.1,0,0.2-0.1,0.2c-0.1,0.1-0.1,0.1-0.2,0.1h-1.5c-0.1,0-0.2,0-0.2-0.1c-0.1-0.1-0.1-0.1-0.1-0.2v-7.8c0-0.1,0-0.2,0.1-0.2
		c0.1-0.1,0.1-0.1,0.2-0.1h1.4c0.1,0,0.2,0,0.2,0.1c0.1,0.1,0.1,0.1,0.1,0.2V12c0.1-0.1,0.1-0.2,0.2-0.2c0.1-0.1,0.2-0.2,0.3-0.2
		c0.1-0.1,0.3-0.1,0.5-0.2c0.2,0,0.4-0.1,0.7-0.1c0.4,0,0.7,0.1,1,0.2c0.3,0.1,0.6,0.3,0.8,0.5c0.2,0.2,0.4,0.5,0.6,0.8
		c0.1,0.3,0.2,0.7,0.2,1.2c0,0.1,0,0.3,0,0.5c0,0.2,0,0.4,0,0.5c0,0.5-0.1,0.9-0.2,1.2c-0.1,0.3-0.3,0.6-0.6,0.8
		c-0.2,0.2-0.5,0.4-0.8,0.5C49.3,17.6,49,17.7,48.6,17.7z M49.2,14.8c0-0.2,0-0.4,0-0.7c0-0.3-0.1-0.5-0.3-0.7
		c-0.2-0.2-0.4-0.3-0.8-0.3c-0.2,0-0.3,0-0.4,0.1c-0.1,0.1-0.2,0.1-0.3,0.2c-0.1,0.1-0.1,0.2-0.2,0.3S47.1,14,47,14.1
		c0,0.1,0,0.3,0,0.4c0,0.2,0,0.3,0,0.4c0,0.1,0,0.2,0.1,0.3s0.1,0.2,0.2,0.3s0.2,0.2,0.3,0.2c0.1,0.1,0.3,0.1,0.4,0.1
		c0.4,0,0.6-0.1,0.8-0.3C49,15.3,49.1,15.1,49.2,14.8z"/>
	<path class="st0" d="M54.5,17.3c0,0.1,0,0.2-0.1,0.2c-0.1,0.1-0.1,0.1-0.2,0.1h-1.5c-0.1,0-0.2,0-0.2-0.1c-0.1-0.1-0.1-0.1-0.1-0.2
		V9.5c0-0.1,0-0.2,0.1-0.2s0.1-0.1,0.2-0.1h1.5c0.1,0,0.2,0,0.2,0.1c0.1,0.1,0.1,0.1,0.1,0.2V17.3z"/>
	<path class="st0" d="M55.5,15.8c0-0.5,0.2-1,0.6-1.3c0.4-0.3,1-0.6,1.9-0.7l1.4-0.2c0-0.2-0.1-0.3-0.2-0.5s-0.3-0.2-0.5-0.2
		c-0.2,0-0.3,0-0.4,0.1c-0.1,0.1-0.2,0.1-0.2,0.1c-0.1,0.1-0.1,0.1-0.2,0.1c-0.1,0-0.1,0-0.2,0h-1.5c-0.1,0-0.1,0-0.2-0.1
		c-0.1,0-0.1-0.1-0.1-0.2c0-0.2,0.1-0.4,0.2-0.6c0.1-0.2,0.3-0.4,0.6-0.5c0.2-0.2,0.5-0.3,0.9-0.4c0.3-0.1,0.7-0.2,1.1-0.2
		c0.5,0,0.9,0.1,1.3,0.2c0.4,0.1,0.6,0.3,0.9,0.5c0.2,0.2,0.4,0.5,0.5,0.7c0.1,0.3,0.2,0.6,0.2,1v3.6c0,0.1,0,0.2-0.1,0.2
		c-0.1,0.1-0.1,0.1-0.2,0.1h-1.5c-0.1,0-0.2,0-0.2-0.1c-0.1-0.1-0.1-0.1-0.1-0.2v-0.3c-0.2,0.2-0.4,0.4-0.7,0.6s-0.6,0.2-1.1,0.2
		c-0.3,0-0.6,0-0.9-0.1c-0.3-0.1-0.5-0.2-0.7-0.4c-0.2-0.2-0.3-0.4-0.4-0.6C55.6,16.3,55.5,16.1,55.5,15.8z M58.2,16.1
		c0.2,0,0.3,0,0.5-0.1c0.1-0.1,0.3-0.1,0.4-0.2c0.1-0.1,0.2-0.2,0.3-0.4c0.1-0.1,0.1-0.3,0.1-0.4l-1.1,0.2c-0.2,0-0.4,0.1-0.5,0.2
		c-0.1,0.1-0.2,0.2-0.2,0.4c0,0.2,0,0.3,0.1,0.3C57.9,16.1,58,16.1,58.2,16.1z"/>
	<path class="st0" d="M64.8,14.1c0,0.1,0,0.3,0,0.4c0,0.2,0,0.3,0,0.4c0,0.3,0.1,0.5,0.3,0.7c0.2,0.2,0.4,0.3,0.8,0.3
		c0.3,0,0.5,0,0.6-0.1c0.1-0.1,0.3-0.2,0.3-0.3c0-0.1,0.1-0.1,0.1-0.2c0.1,0,0.1-0.1,0.2-0.1h1.6c0.1,0,0.2,0,0.2,0.1
		c0.1,0.1,0.1,0.1,0.1,0.2c0,0.1-0.1,0.3-0.2,0.6s-0.3,0.5-0.5,0.7c-0.2,0.2-0.6,0.5-1,0.6c-0.4,0.2-0.9,0.3-1.5,0.3
		c-0.4,0-0.9-0.1-1.2-0.2c-0.4-0.1-0.7-0.3-1-0.5c-0.3-0.2-0.5-0.5-0.7-0.9c-0.2-0.3-0.3-0.7-0.3-1.1c0-0.1,0-0.3,0-0.5
		c0-0.2,0-0.4,0-0.5c0-0.4,0.1-0.8,0.3-1.1c0.2-0.3,0.4-0.6,0.7-0.9c0.3-0.2,0.6-0.4,1-0.5c0.4-0.1,0.8-0.2,1.2-0.2
		c0.6,0,1.1,0.1,1.5,0.3c0.4,0.2,0.7,0.4,1,0.6c0.2,0.2,0.4,0.5,0.5,0.7s0.1,0.4,0.2,0.6c0,0.1,0,0.2-0.1,0.2
		c-0.1,0.1-0.1,0.1-0.2,0.1h-1.6c-0.1,0-0.2,0-0.2-0.1c-0.1,0-0.1-0.1-0.1-0.2c-0.1-0.1-0.2-0.2-0.3-0.3s-0.3-0.1-0.6-0.1
		c-0.3,0-0.6,0.1-0.8,0.3C64.9,13.6,64.8,13.8,64.8,14.1z"/>
	<path class="st0" d="M71.9,15.2c0,0.2,0,0.3,0.1,0.4c0.1,0.1,0.2,0.2,0.3,0.3s0.2,0.1,0.3,0.1c0.1,0,0.2,0,0.4,0
		c0.2,0,0.4,0,0.6-0.1c0.1,0,0.3-0.1,0.3-0.2c0.1-0.1,0.1-0.1,0.2-0.1c0,0,0.1,0,0.2,0h1.5c0.2,0,0.3,0.1,0.3,0.3
		c0,0.1-0.1,0.2-0.2,0.4c-0.1,0.2-0.3,0.4-0.6,0.6c-0.2,0.2-0.6,0.4-1,0.5c-0.4,0.1-0.9,0.2-1.4,0.2c-0.5,0-1-0.1-1.4-0.2
		c-0.4-0.1-0.7-0.4-1-0.6c-0.3-0.3-0.5-0.6-0.6-1c-0.1-0.4-0.2-0.8-0.2-1.3c0-0.5,0.1-0.9,0.2-1.3c0.1-0.4,0.3-0.7,0.6-1
		c0.3-0.3,0.6-0.5,1-0.7c0.4-0.2,0.9-0.2,1.4-0.2c0.6,0,1.1,0.1,1.5,0.3c0.4,0.2,0.7,0.4,1,0.8c0.3,0.3,0.4,0.7,0.6,1
		c0.1,0.4,0.2,0.8,0.2,1.1v0.3c0,0.1,0,0.2-0.1,0.2c-0.1,0.1-0.1,0.1-0.2,0.1H71.9z M72.9,12.9c-0.3,0-0.6,0.1-0.8,0.3
		c-0.2,0.2-0.3,0.4-0.3,0.7H74c0-0.2-0.1-0.5-0.3-0.7C73.5,13,73.3,12.9,72.9,12.9z"/>
</g>
</svg>
